<?xml version="1.0" standalone="no"?>
<!DOCTYPE svg PUBLIC "-//W3C//DTD SVG 20010904//EN"
 "http://www.w3.org/TR/2001/REC-SVG-20010904/DTD/svg10.dtd">
<svg version="1.0" xmlns="http://www.w3.org/2000/svg"
 width="500.000000pt" height="500.000000pt" viewBox="0 0 500.000000 500.000000"
 preserveAspectRatio="xMidYMid meet">
<metadata>
Created by potrace 1.14, written by Peter Selinger 2001-2017
</metadata>
<g transform="translate(0.000000,500.000000) scale(0.100000,-0.100000)"
fill="#000000" stroke="none">
<path d="M1084 3893 c3 -10 170 -538 371 -1173 201 -635 369 -1162 374 -1170
6 -10 25 -15 62 -15 l54 0 157 405 157 405 1 119 c0 66 -3 116 -7 112 -4 -4
-86 -214 -184 -468 -97 -253 -178 -457 -181 -452 -3 5 -162 514 -354 1132
l-348 1122 -54 0 c-46 0 -53 -2 -48 -17z"/>
<path d="M2300 2719 l0 -1190 53 3 52 3 3 568 2 568 23 -7 c47 -14 97 -45 132
-81 21 -21 157 -213 303 -427 147 -213 295 -421 328 -460 103 -121 192 -166
329 -166 66 0 152 18 184 39 11 7 11 15 1 46 -13 40 -10 39 -90 10 -62 -23
-154 -15 -225 19 -74 37 -124 96 -306 360 -84 121 -211 306 -282 409 -131 190
-211 283 -268 313 l-32 16 24 23 c289 274 994 947 1081 1032 l116 113 -67 0
-67 0 -589 -566 -590 -566 -3 566 -2 566 -55 0 -55 0 0 -1191z"/>
<path d="M2749 3883 c-5 -16 -71 -186 -145 -379 l-134 -350 0 -130 1 -129 189
490 c105 270 193 498 196 508 5 15 -2 17 -46 17 -46 0 -51 -2 -61 -27z"/>
<path d="M1110 1320 c0 -5 5 -10 10 -10 6 0 10 5 10 10 0 6 -4 10 -10 10 -5 0
-10 -4 -10 -10z"/>
<path d="M1282 1248 l-2 -88 48 2 47 1 -42 4 -42 4 -4 82 -3 82 -2 -87z"/>
<path d="M1468 1323 c12 -2 32 -2 45 0 12 2 2 4 -23 4 -25 0 -35 -2 -22 -4z"/>
<path d="M1632 1243 c1 -49 3 -69 5 -45 2 23 7 42 11 42 4 0 20 -14 35 -32
l29 -33 -21 32 c-16 23 -18 33 -9 36 7 3 1 6 -14 6 -25 1 -28 5 -28 35 0 32 3
35 33 39 31 4 31 4 -5 5 l-38 2 2 -87z"/>
<path d="M1824 1245 c0 -49 1 -71 3 -48 2 23 2 64 0 90 -2 26 -3 8 -3 -42z"/>
<path d="M1934 1245 c0 -49 1 -71 3 -48 2 23 2 64 0 90 -2 26 -3 8 -3 -42z"/>
<path d="M2087 1317 c-3 -8 1 -14 8 -14 7 0 11 6 8 14 -3 7 -6 13 -8 13 -2 0
-5 -6 -8 -13z"/>
<path d="M2363 1245 c0 -49 2 -70 4 -45 l4 45 31 -35 30 -35 -25 36 -26 36 42
44 42 44 -47 -44 -47 -44 -4 44 c-2 24 -4 4 -4 -46z"/>
<path d="M2543 1270 c0 -36 2 -50 4 -32 2 17 2 47 0 65 -2 17 -4 3 -4 -33z"/>
<path d="M2662 1272 c-1 -35 -7 -72 -12 -83 -14 -25 -75 -26 -89 -1 -6 9 -11
12 -11 7 0 -20 24 -35 57 -35 48 0 65 31 60 112 l-3 63 -2 -63z"/>
<path d="M2772 1248 l-2 -88 48 2 47 1 -42 4 -42 4 -4 82 -3 82 -2 -87z"/>
<path d="M3090 1285 c-24 -25 -42 -45 -39 -45 3 0 25 20 49 45 24 25 42 45 39
45 -3 0 -25 -20 -49 -45z"/>
<path d="M3271 1326 c2 -2 22 -6 44 -9 27 -4 35 -3 25 3 -14 9 -79 15 -69 6z"/>
<path d="M3451 1325 c1 -19 18 -51 18 -35 0 8 -4 22 -9 30 -5 8 -9 11 -9 5z"/>
<path d="M3565 1319 c-4 -6 -5 -12 -2 -15 2 -3 7 2 10 11 7 17 1 20 -8 4z"/>
<path d="M3707 1317 c-3 -8 1 -14 8 -14 7 0 11 6 8 14 -3 7 -6 13 -8 13 -2 0
-5 -6 -8 -13z"/>
<path d="M956 1285 c-9 -26 -7 -32 5 -12 6 10 9 21 6 23 -2 3 -7 -2 -11 -11z"/>
<path d="M1096 1285 c-9 -26 -7 -32 5 -12 6 10 9 21 6 23 -2 3 -7 -2 -11 -11z"/>
<path d="M1130 1295 c0 -5 5 -17 10 -25 5 -8 10 -10 10 -5 0 6 -5 17 -10 25
-5 8 -10 11 -10 5z"/>
<path d="M1712 1272 c-11 -25 -11 -25 4 -10 9 9 15 21 13 27 -2 6 -10 -2 -17
-17z"/>
<path d="M3226 1275 c-3 -9 -6 -26 -5 -38 1 -14 4 -9 9 13 9 37 7 52 -4 25z"/>
<path d="M3362 1250 c-3 -52 -26 -80 -67 -80 -24 0 -39 7 -49 22 -9 12 -16 18
-16 12 0 -23 38 -45 71 -42 43 4 72 43 66 89 l-4 34 -1 -35z"/>
<path d="M2126 1243 c5 -21 2 -23 -30 -23 -22 0 -36 5 -36 13 0 8 -4 7 -10 -3
-15 -24 -13 -25 39 -22 43 3 50 1 56 -18 4 -12 9 -20 11 -17 2 2 -5 24 -16 48
-11 24 -17 34 -14 22z"/>
<path d="M3746 1243 c5 -21 2 -23 -30 -23 -22 0 -36 5 -36 13 0 8 -4 7 -10 -3
-15 -24 -13 -25 39 -22 43 3 50 1 56 -18 4 -12 9 -20 11 -17 2 2 -5 24 -16 48
-11 24 -17 34 -14 22z"/>
<path d="M1076 1234 c-3 -9 -6 -18 -6 -20 0 -2 24 -3 53 -2 l52 2 -47 3 c-36
3 -46 7 -41 19 3 7 3 14 0 14 -3 0 -8 -7 -11 -16z"/>
<path d="M1468 1243 c12 -2 32 -2 45 0 12 2 2 4 -23 4 -25 0 -35 -2 -22 -4z"/>
<path d="M891 1214 c0 -11 3 -14 6 -6 3 7 2 16 -1 19 -3 4 -6 -2 -5 -13z"/>
<path d="M3091 1201 c14 -19 32 -37 40 -39 8 -3 5 3 -6 14 -11 10 -29 28 -40
39 -10 11 -8 4 6 -14z"/>
<path d="M3511 1189 c-7 -12 -10 -23 -8 -26 3 -3 11 5 17 17 15 28 8 35 -9 9z"/>
<path d="M1056 1185 c-9 -26 -7 -32 5 -12 6 10 9 21 6 23 -2 3 -7 -2 -11 -11z"/>
<path d="M900 1181 c0 -6 4 -13 10 -16 6 -3 7 1 4 9 -7 18 -14 21 -14 7z"/>
<path d="M2026 1173 c-6 -14 -5 -15 5 -6 7 7 10 15 7 18 -3 3 -9 -2 -12 -12z"/>
<path d="M3646 1173 c-6 -14 -5 -15 5 -6 7 7 10 15 7 18 -3 3 -9 -2 -12 -12z"/>
<path d="M1473 1163 c15 -2 37 -2 50 0 12 2 0 4 -28 4 -27 0 -38 -2 -22 -4z"/>
</g>
</svg>
